:version 1.10
:name ASF
:units
  mass 1
  length 1
  angle deg
:documentation
  ASF file generated by Kaydara
:root
  axis xyz
  order  tx ty tz rx ry rz
  position 0 0 0
  orientation 0 0 0
:bonedata
  begin
    id 1
    name RightUpLegDummy
    direction -0.65628 -0.754516 0.00165102
    length 4.76918
    axis 0 0 0 xyz
  end
  begin
    id 2
    name RightUpLeg
    direction -0.145584 -0.923362 0.355256
    length 17.9961
    axis -24.7611 -13.1006 1.78531 xyz
    dof rx ry rz
  end
  begin
    id 3
    name RightLeg
    direction 0.263379 0.172355 -0.949171
    length 13.3386
    axis 89.6202 -21.1929 12.3855 xyz
    dof rx ry rz
  end
  begin
    id 4
    name RightFoot
    direction 0.224283 -0.968777 -0.105675
    length 5.86697
    axis 56.995 -39.6905 17.3365 xyz
    dof rx ry rz
  end
  begin
    id 5
    name RightToes
    direction -0.0806345 -0.9037 0.420506
    length 4.75197
    axis 146.825 -39.7828 17.6019 xyz
    dof rx ry rz
  end
  begin
    id 6
    name SpineDummy
    direction -3.39852e-014 1 9.33296e-014
    length 8.13779
    axis 0 0 0 xyz
  end
  begin
    id 7
    name Spine
    direction -0.156609 0.733703 0.661176
    length 7.14978
    axis 41.2365 5.68757 17.0844 xyz
    dof rx ry rz
  end
  begin
    id 8
    name Spine1
    direction 0 0 0
    length 0
    axis 42.8809 47.8308 -3.36039 xyz
    dof rx ry rz
  end
  begin
    id 9
    name HEadDummy
    direction 0.546431 0.701947 0.456819
    length 3.55512
    axis 42.8809 47.8308 -3.36039 xyz
  end
  begin
    id 10
    name HEad
    direction 0.23444 0.828559 0.508457
    length 7.35827
    axis 51.1864 49.2662 27.4903 xyz
    dof rx ry rz
  end
  begin
    id 11
    name LeftShoulder1Dummy
    direction 0.431183 0.475873 -0.766568
    length 2.49352
    axis 42.8809 47.8308 -3.36039 xyz
  end
  begin
    id 12
    name LeftShoulder1
    direction 0.268187 -0.383402 -0.883786
    length 4.48604
    axis -119.517 0.106469 35.1736 xyz
    dof rx ry rz
  end
  begin
    id 13
    name LeftArm
    direction 0.380567 -0.703221 -0.600541
    length 10.1142
    axis -5.41825 36.2925 7.8293 xyz
    dof rx ry rz
  end
  begin
    id 14
    name LeftForeArm
    direction 0.541071 -0.732356 -0.413396
    length 9.39839
    axis 4.65387 33.7604 7.81644 xyz
    dof rx ry rz
  end
  begin
    id 15
    name LeftHand
    direction 0.847511 -0.389379 -0.360707
    length 3.66142
    axis 7.65593 21.1436 -24.6758 xyz
    dof rx ry rz
  end
  begin
    id 16
    name RightShoulderDummy
    direction -0.692546 0.541855 0.476208
    length 2.49352
    axis 42.8809 47.8308 -3.36039 xyz
  end
  begin
    id 17
    name RightShoulder
    direction -0.870808 -0.316653 0.376065
    length 4.48602
    axis 141.571 51.133 -100.254 xyz
    dof rx ry rz
  end
  begin
    id 18
    name RightArm
    direction 0.366897 -0.87275 0.322015
    length 10.1142
    axis 92.3258 71.2036 138.917 xyz
    dof rx ry rz
  end
  begin
    id 19
    name RightForeArm
    direction 0.702487 -0.694568 0.155197
    length 9.39835
    axis 153.863 41.5092 -176.604 xyz
    dof rx ry rz
  end
  begin
    id 20
    name RightHand
    direction 0.79502 -0.601276 0.0800636
    length 3.66142
    axis 154.247 4.59222 142.9 xyz
    dof rx ry rz
  end
  begin
    id 21
    name LeftUpLegDummy
    direction 0.65628 -0.754516 0.00165102
    length 4.76919
    axis 0 0 0 xyz
  end
  begin
    id 22
    name LeftUpLeg
    direction -0.1277 -0.689368 0.713067
    length 17.9961
    axis -48.3385 -17.8675 0.791927 xyz
    dof rx ry rz
  end
  begin
    id 23
    name LeftLeg
    direction 0.109849 -0.991246 -0.0732378
    length 13.3386
    axis -2.05791 -7.30784 1.72042 xyz
    dof rx ry rz
  end
  begin
    id 24
    name LeftFoot
    direction 0.0448355 -0.272614 0.961078
    length 5.86697
    axis -18.7733 -7.89606 10.2113 xyz
    dof rx ry rz
  end
  begin
    id 25
    name LeftToes
    direction -0.18506 0.293668 0.937823
    length 4.75197
    axis 71.2267 -7.89606 10.2113 xyz
    dof rx ry rz
  end
:hierarchy
  begin
    root RightUpLegDummy SpineDummy LeftUpLegDummy
    RightUpLegDummy RightUpLeg
    RightUpLeg RightLeg
    RightLeg RightFoot
    RightFoot RightToes
    SpineDummy Spine
    Spine Spine1
    Spine1 HEadDummy LeftShoulder1Dummy RightShoulderDummy
    HEadDummy HEad
    LeftShoulder1Dummy LeftShoulder1
    LeftShoulder1 LeftArm
    LeftArm LeftForeArm
    LeftForeArm LeftHand
    RightShoulderDummy RightShoulder
    RightShoulder RightArm
    RightArm RightForeArm
    RightForeArm RightHand
    LeftUpLegDummy LeftUpLeg
    LeftUpLeg LeftLeg
    LeftLeg LeftFoot
    LeftFoot LeftToes
  end

:SAMPLES-PER-SECOND 30
:FULLY-SPECIFIED
:DEGREES
615
root  -33.0206 37.9859 -0.953884 5.41652 49.4393 13.9868
RightUpLeg  14.6692 -4.86728 2.04441
RightLeg  -57.166 -10.1606 -6.43174
RightFoot  18.269 -0.650283 -6.90019
RightToes  -1.27222e-014 -6.36111e-015 6.36111e-015
Spine  -36.6502 -8.94478 -15.2104
Spine1  6.99857 -3.78277 28.6716
HEad  17.6087 -28.5046 -17.5607
LeftShoulder1  6.36111e-015 -1.33558e-015 6.49777e-015
LeftArm  27.6972 -5.5325 -41.1171
LeftForeArm  3.28776 -18.1665 -9.02205
LeftHand  -0.817359 0.114697 -10.3627
RightShoulder  -4.77083e-015 -6.36111e-015 -3.18055e-015
RightArm  40.069 -14.5997 16.589
RightForeArm  -15.8908 -14.338 -6.5975
RightHand  2.15984 -2.58971 -11.0236
LeftUpLeg  31.7163 36.117 13.3222
LeftLeg  -10.6318 2.98313 -1.66818
LeftFoot  -3.31876 2.45596 -9.16935
LeftToes  9.54166e-015 -1.91609e-011 -2.3878e-011
616
root  -32.8787 38.0352 -0.436306 4.226 47.1864 13.1857
RightUpLeg  11.6884 -3.99683 0.71956
RightLeg  -55.3366 -17.9441 2.59233
RightFoot  16.7464 -0.136391 -7.19662
RightToes  -1.27222e-014 -6.36111e-015 6.36111e-015
Spine  -36.7368 -11.339 -16.1793
Spine1  8.29517 -5.37885 29.9765
HEad  18.7677 -35.9193 -19.6434
LeftShoulder1  6.36111e-015 -1.33558e-015 6.49777e-015
LeftArm  32.1971 -8.09472 -46.1773
LeftForeArm  -0.367918 -16.9415 -6.47629
LeftHand  -0.880461 -0.191982 -10.03
RightShoulder  -4.77083e-015 -6.36111e-015 -3.18055e-015
RightArm  39.9949 -15.6263 14.1315
RightForeArm  -15.591 -12.0267 -7.40682
RightHand  2.26541 -2.68677 -11.5207
LeftUpLeg  33.974 36.1244 15.7506
LeftLeg  -10.4216 3.02746 -1.61458
LeftFoot  -4.11445 2.48494 -9.53443
LeftToes  9.54166e-015 -1.91609e-011 -2.3878e-011
617
root  -32.7224 38.0792 0.1078 2.84776 45.2005 12.1579
RightUpLeg  9.04631 -1.63578 -0.243149
RightLeg  -55.2237 -24.0167 8.89312
RightFoot  17.6614 1.30806 -9.78901
RightToes  -1.27222e-014 -6.36111e-015 6.36111e-015
Spine  -36.7201 -13.6735 -17.043
Spine1  9.27531 -7.093 31.8919
HEad  19.0646 -40.755 -20.9715
LeftShoulder1  6.36111e-015 -1.33558e-015 6.49777e-015
LeftArm  37.734 -10.9959 -52.5739
LeftForeArm  -4.11849 -16.1192 -3.45275
LeftHand  -0.882059 -0.270164 -9.75421
RightShoulder  -4.77083e-015 -6.36111e-015 -3.18055e-015
RightArm  40.0489 -17.9878 9.48277
RightForeArm  -16.2352 -10.4769 -8.12726
RightHand  2.39907 -2.72603 -12.2871
LeftUpLeg  36.3122 35.9757 18.3435
LeftLeg  -10.2931 3.45357 -1.59771
LeftFoot  -4.76704 2.42511 -9.51765
LeftToes  9.54166e-015 -1.91609e-011 -2.3878e-011
618
root  -32.5783 38.0916 0.694329 1.69992 43.9981 11.1428
RightUpLeg  6.6294 1.23957 -1.26601
RightLeg  -55.7555 -26.9442 11.9869
RightFoot  18.6526 3.41385 -13.3725
RightToes  -1.27222e-014 -6.36111e-015 6.36111e-015
Spine  -36.5042 -16.4565 -18.2866
Spine1  9.63912 -9.12519 35.0992
HEad  18.4937 -43.3735 -21.3038
LeftShoulder1  6.36111e-015 -1.33558e-015 6.49777e-015
LeftArm  41.2701 -12.8525 -57.4108
LeftForeArm  -6.04151 -17.0627 -1.39755
LeftHand  -0.83242 -0.115337 -9.70634
RightShoulder  -4.77083e-015 -6.36111e-015 -3.18055e-015
RightArm  40.8569 -20.524 3.79268
RightForeArm  -16.9176 -9.3105 -8.737
RightHand  2.50011 -2.64173 -13.0671
LeftUpLeg  38.02 35.5022 20.6156
LeftLeg  -9.75707 4.18902 -1.51004
LeftFoot  -5.19398 2.3507 -9.36369
LeftToes  9.54166e-015 -1.91609e-011 -2.3878e-011
619
root  -32.4294 38.1145 1.32412 0.742477 43.5316 10.0395
RightUpLeg  4.49354 4.39562 -2.37735
RightLeg  -56.7552 -26.6512 12.1906
RightFoot  18.5398 4.58784 -15.2086
RightToes  -1.27222e-014 -6.36111e-015 6.36111e-015
Spine  -36.3161 -19.1995 -19.338
Spine1  9.40537 -11.2292 38.9962
HEad  17.3875 -44.0862 -21.0754
LeftShoulder1  6.36111e-015 -1.33558e-015 6.49777e-015
LeftArm  42.3163 -14.1816 -59.9571
LeftForeArm  -6.1471 -19.3493 -0.853197
LeftHand  -0.851542 -0.131006 -9.89006
RightShoulder  -4.77083e-015 -6.36111e-015 -3.18055e-015
RightArm  42.2893 -22.8434 -2.25068
RightForeArm  -17.0517 -8.5507 -9.08625
RightHand  2.71667 -2.76166 -14.1893
LeftUpLeg  39.3265 34.4591 22.3994
LeftLeg  -9.20892 4.61887 -1.40559
LeftFoot  -5.48419 2.32613 -9.36205
LeftToes  9.54166e-015 -1.91609e-011 -2.3878e-011
620
root  -32.2609 38.1711 1.9922 0.0725555 43.289 9.05881
RightUpLeg  2.66331 7.74781 -3.69922
RightLeg  -59.1838 -24.4781 11.0981
RightFoot  18.529 4.53977 -15.1302
RightToes  -1.27222e-014 -6.36111e-015 6.36111e-015
Spine  -36.4216 -21.519 -20.0511
Spine1  9.03797 -13.0159 42.8979
HEad  16.1587 -43.0547 -20.8044
LeftShoulder1  6.36111e-015 -1.33558e-015 6.49777e-015
LeftArm  43.1724 -16.0175 -62.3012
LeftForeArm  -6.19988 -20.7893 -0.62186
LeftHand  -0.955435 -0.43147 -10.0914
RightShoulder  -4.77083e-015 -6.36111e-015 -3.18055e-015
RightArm  44.0646 -24.6812 -8.16894
RightForeArm  -17.0676 -9.5455 -8.6676
RightHand  3.13612 -3.15173 -16.0008
LeftUpLeg  40.655 33.1295 23.6941
LeftLeg  -9.23443 4.48717 -1.41272
LeftFoot  -5.82534 2.375 -9.68079
LeftToes  9.54166e-015 -1.91609e-011 -2.3878e-011
621
root  -32.0986 38.2406 2.69907 -0.132584 42.9133 8.54376
RightUpLeg  1.18396 11.0494 -5.27826
RightLeg  -63.7618 -22.0198 10.3272
RightFoot  19.207 4.44363 -15.1023
RightToes  -1.27222e-014 -6.36111e-015 6.36111e-015
Spine  -36.6182 -23.5216 -20.8988
Spine1  8.76804 -14.344 46.6249
HEad  15.0459 -41.0209 -20.5852
LeftShoulder1  6.36111e-015 -1.33558e-015 6.49777e-015
LeftArm  43.9822 -18.2456 -64.4635
LeftForeArm  -6.13776 -21.7208 -0.47498
LeftHand  -1.01494 -0.588764 -10.2717
RightShoulder  -4.77083e-015 -6.36111e-015 -3.18055e-015
RightArm  45.8382 -26.0341 -14.0183
RightForeArm  -17.1456 -12.9727 -7.29315
RightHand  3.50824 -3.393 -17.7318
LeftUpLeg  42.03 32.0189 24.6445
LeftLeg  -9.80143 4.17948 -1.52901
LeftFoot  -6.01345 2.47944 -10.182
LeftToes  9.54166e-015 -1.91609e-011 -2.3878e-011
